<svg xmlns="http://www.w3.org/2000/svg" viewBox="0 0 511.995 511.995" width="512" height="512"><path d="M511.372 368.554c-.513-1.506-12.853-36.93-40.4-45.327-11.823-3.604-24.091-1.508-34.353 2.129a130.416 130.416 0 0 0 4.146-9.545c2.604.239 5.825.434 9.45.434 12.931 0 30.866-2.475 43.189-14.215 20.85-19.863 15.985-57.058 15.768-58.632a7.605 7.605 0 0 0-6.131-6.435c-1.56-.293-38.477-6.952-59.327 12.91a7.608 7.608 0 0 0 10.494 11.016c11.198-10.668 30.752-10.509 40.365-9.67.429 11.035-1.174 29.807-11.662 39.799-11.181 10.652-30.692 10.512-40.321 9.674-.148-3.896-.1-9.392.752-15.279a7.607 7.607 0 0 0-6.439-8.618c-4.159-.607-8.016 2.282-8.618 6.439a93.81 93.81 0 0 0-.793 7.876 41.923 41.923 0 0 0-2.344-4.695c-14.469-24.898-51.776-28.819-53.356-28.973a7.616 7.616 0 0 0-7.686 4.466c-.648 1.45-15.712 35.805-1.243 60.703 8.908 15.329 26.464 22.699 39.018 26.142-8.806 9.148-19.049 16.93-30.288 23.141 2.557-11.639 3.348-26.089-3.076-38.659-13.104-25.644-50.144-31.572-51.714-31.813a7.608 7.608 0 0 0-7.915 4.045c-.726 1.413-17.624 34.904-4.52 60.547 4.937 9.662 13.273 16.523 21.829 21.338a138.553 138.553 0 0 1-51.59-1.715c9.018-8.791 20.004-23.081 20.007-40.563.005-28.817-30.297-50.971-31.587-51.9a7.601 7.601 0 0 0-8.888-.001c-1.29.928-31.602 23.071-31.607 51.888-.004 17.992 11.835 32.602 21.169 41.327-19.977 6.201-40.753 7.366-60.831 3.611 10.164-4.838 20.877-12.372 26.765-23.894 13.112-25.66-3.797-59.174-4.523-60.588a7.602 7.602 0 0 0-7.915-4.045c-1.571.24-38.637 6.173-51.749 31.833-7.081 13.857-5.404 29.995-2.252 42.141-12.338-6.999-23.256-15.874-32.447-26.271 12.622-3.285 31.12-10.63 40.347-26.507 14.479-24.914-.595-59.291-1.244-60.744a7.603 7.603 0 0 0-7.685-4.466c-.228.022-5.661.567-13.037 2.481a7.606 7.606 0 1 0 3.821 14.725 90.415 90.415 0 0 1 5.021-1.15c3.057 9.182 7.737 28.145-.028 41.508-7.767 13.364-26.56 18.686-36.046 20.575-3.057-9.182-7.735-28.142.03-41.504 1.79-3.081 4.314-5.941 7.504-8.503a7.607 7.607 0 0 0-9.528-11.86c-4.652 3.737-8.397 8.017-11.13 12.72a42.109 42.109 0 0 0-2.358 4.725c-.772-12.811-4.27-29.898-16.231-41.292-7.383-7.034-17.523-11.519-30.14-13.333a7.605 7.605 0 0 0-8.612 6.447 7.609 7.609 0 0 0 6.447 8.612c9.424 1.354 16.763 4.48 21.81 9.289 11.192 10.662 11.996 30.178 11.627 39.843-9.644.837-29.171.977-40.359-9.683-15.196-14.477-11.24-45.279-11.201-45.576a7.608 7.608 0 0 0-6.495-8.576c-4.159-.569-8.001 2.333-8.576 6.495-.217 1.575-5.086 38.795 15.778 58.672 12.332 11.749 30.277 14.224 43.217 14.223 3.623 0 6.842-.196 9.446-.434a144.11 144.11 0 0 0 4.034 9.518c-10.242-3.612-22.468-5.678-34.252-2.085-27.563 8.404-39.912 43.852-40.423 45.357a7.607 7.607 0 0 0 2.592 8.502c1.067.812 22.587 16.965 45.838 16.965 4.317 0 8.697-.557 13.014-1.873 17.631-5.375 29.027-21.805 35.091-33.35a140.51 140.51 0 0 0 13.699 13.592c-4.145.516-8.282 1.552-12.281 3.295-26.417 11.512-34.614 48.144-34.95 49.697a7.604 7.604 0 0 0 3.551 8.148c1.05.624 20.411 11.938 41.307 11.937 6.309 0 12.762-1.032 18.89-3.703 19.082-8.316 28.654-29.733 32.627-41.574a141.935 141.935 0 0 0 9.355 2.712c-5.932 3.393-11.472 7.969-15.667 14.164-16.157 23.86-3.482 59.193-2.934 60.685a7.606 7.606 0 0 0 7.36 4.984c1.589-.046 39.103-1.392 55.26-25.253 11.489-16.967 7.801-38.905 4.411-50.884a143.517 143.517 0 0 0 31.713-6.793 144.825 144.825 0 0 0 7.483-2.77c11.304 3.549 23.051 5.714 34.921 6.523-3.034 11.725-7.059 35.943 5.008 53.764 16.146 23.845 53.634 25.191 55.222 25.236a7.607 7.607 0 0 0 7.361-4.986c.547-1.491 13.197-36.786-2.931-60.639-5.174-7.653-12.534-12.979-20.204-16.698a155.409 155.409 0 0 0 12.855-3.409c3.173 10.651 12.646 35.645 33.633 44.79 6.125 2.669 12.57 3.7 18.877 3.7 20.879 0 40.229-11.305 41.278-11.928a7.607 7.607 0 0 0 3.551-8.148c-.336-1.553-8.527-38.159-34.927-49.665-4.806-2.094-9.81-3.171-14.79-3.543 5.636-4.41 10.871-9.2 15.67-14.338 5.916 11.566 17.46 28.813 35.598 34.342 4.315 1.315 8.689 1.872 13.005 1.872 23.234 0 44.742-16.142 45.808-16.953a7.601 7.601 0 0 0 2.592-8.499zM59.493 377.69c-14.809 4.514-32.234-4.412-40.454-9.479 4.57-10.062 14.436-26.138 28.306-30.366 14.806-4.516 32.233 4.411 40.454 9.479-4.569 10.062-14.435 26.138-28.306 30.366zm63.666 50.221c-14.17 6.175-32.468-.659-41.231-4.752 2.971-9.21 10.421-27.262 24.59-33.436 11.47-5 25.645-1.473 35.279 2.223.284.143.563.293.848.434 1.66.827 3.336 1.605 5.016 2.364-3.028 9.29-10.468 27.052-24.502 33.167zm38.002-46.227c-4.061-10.28-8.765-28.546-2.166-41.459 7.034-13.764 25.511-20.092 34.882-22.491 3.549 9.003 9.245 27.683 2.212 41.447-7.045 13.786-25.573 20.113-34.928 22.503zm41.478 67.362c-8.682 12.82-27.845 16.829-37.422 18.054-2.77-10.699-5.201-29.404 2.93-41.411 8.659-12.786 27.184-16.026 36.24-16.847 2.702 8.794 6.845 27.516-1.748 40.204zm56.194-69.713c-7.166-5.767-21.091-18.948-21.088-34.272.003-15.456 13.581-29.498 20.834-35.897 7.256 6.404 20.825 20.449 20.822 35.904-.004 15.442-13.528 28.509-20.568 34.265zm86.989 46.218c8.663 12.813 5.284 32.071 2.871 41.413-10.953-1.399-29.202-6.082-37.325-18.076-8.661-12.79-5.294-32.019-2.879-41.373 9.615 1.216 28.654 5.203 37.333 18.036zm7.42-45.241a127 127 0 0 1-2.263.82c-10.771-3.008-26.824-9.827-33.065-22.04-7.038-13.773-1.317-32.474 2.225-41.449 10.7 2.73 28.238 9.615 34.83 22.513 6.716 13.145 1.813 30.772-1.727 40.156zm54.168 9.309c14.178 6.179 21.624 24.263 24.581 33.447-10.003 4.68-27.926 10.489-41.206 4.701-14.178-6.179-21.624-24.263-24.581-33.447 10.003-4.679 27.928-10.488 41.206-4.701zm4.603-54.053c-10.833-2.149-28.718-8.077-35.996-20.601-7.771-13.371-3.069-32.354-.017-41.508 10.832 2.149 28.717 8.076 35.996 20.601 7.77 13.371 3.068 32.354.017 41.508zm42.389 42.018c-14.793-4.51-24.266-21.619-28.259-30.404 9.4-5.797 26.538-13.625 40.394-9.402 14.794 4.51 24.267 21.619 28.26 30.404-9.399 5.797-26.537 13.625-40.395 9.402zM158.404 86.57a7.603 7.603 0 0 0-6.023-5.158l-45.288-7.301-20.937-40.817a7.605 7.605 0 0 0-13.536 0l-5.6 10.917a7.606 7.606 0 0 0 3.296 10.24 7.612 7.612 0 0 0 8.873-1.409l16.127 31.437a7.609 7.609 0 0 0 5.557 4.038l34.451 5.554-24.607 24.743a7.604 7.604 0 0 0-2.123 6.532l5.364 34.48-31.135-15.756a7.609 7.609 0 0 0-6.868 0L44.82 159.827l5.363-34.481a7.603 7.603 0 0 0-2.123-6.532L23.453 94.07l34.451-5.554a7.61 7.61 0 0 0 5.557-4.036l3.29-6.413a7.606 7.606 0 0 0-3.296-10.24 7.605 7.605 0 0 0-10.239 3.295l-1.533 2.989-45.288 7.3a7.606 7.606 0 0 0-4.182 12.872l32.348 32.528-7.051 45.328a7.606 7.606 0 0 0 10.95 7.957l40.93-20.713 40.93 20.713a7.605 7.605 0 0 0 10.95-7.957l-7.052-45.328 32.348-32.527a7.614 7.614 0 0 0 1.838-7.714zm353.219 0a7.603 7.603 0 0 0-6.023-5.158l-45.288-7.301-20.938-40.816a7.607 7.607 0 0 0-13.536-.001l-3.377 6.582a7.606 7.606 0 0 0 8.74 10.818l17.331 33.784a7.609 7.609 0 0 0 5.557 4.038l34.451 5.554-24.607 24.743a7.604 7.604 0 0 0-2.123 6.532l5.364 34.48-31.135-15.756a7.61 7.61 0 0 0-6.869 0l-31.136 15.757 5.364-34.481a7.605 7.605 0 0 0-2.123-6.533L376.668 94.07l34.451-5.554a7.607 7.607 0 0 0 5.557-4.036l3.303-6.439a7.606 7.606 0 0 0-3.295-10.24 7.604 7.604 0 0 0-10.24 3.295l-1.547 3.014-45.288 7.301a7.606 7.606 0 0 0-4.182 12.872l32.351 32.528-7.052 45.328a7.606 7.606 0 0 0 10.95 7.957l40.931-20.713 40.93 20.713a7.603 7.603 0 0 0 7.906-.634 7.605 7.605 0 0 0 3.045-7.323l-7.052-45.328 32.348-32.527a7.613 7.613 0 0 0 1.839-7.714z" fill="#FFF"/><path d="M336.881 186.219a7.603 7.603 0 0 0-6.023-5.158l-45.288-7.301-20.939-40.816a7.605 7.605 0 0 0-13.536 0l-3.629 7.073a7.606 7.606 0 0 0 9.177 10.686l17.147 33.424a7.609 7.609 0 0 0 5.557 4.038l34.45 5.554-24.607 24.743a7.604 7.604 0 0 0-2.123 6.532l5.363 34.481-31.133-15.756a7.609 7.609 0 0 0-6.868 0l-31.135 15.756 5.364-34.48a7.603 7.603 0 0 0-2.123-6.532l-24.607-24.743 34.451-5.554a7.607 7.607 0 0 0 5.557-4.038l2.987-5.824a7.606 7.606 0 0 0-3.296-10.24 7.608 7.608 0 0 0-10.24 3.296l-1.23 2.399-45.288 7.301a7.606 7.606 0 0 0-4.182 12.872l32.351 32.528-7.052 45.328a7.606 7.606 0 0 0 10.95 7.957l40.93-20.713 40.93 20.713a7.605 7.605 0 0 0 10.95-7.956l-7.051-45.328 32.348-32.527a7.612 7.612 0 0 0 1.838-7.715z" fill="#FFF"/></svg>