<svg xmlns="http://www.w3.org/2000/svg" viewBox="0 0 512.001 512.001" width="512" height="512"><path d="M504.422 266.124h-9.793c-8.204 0-14.878-6.674-14.878-14.878s6.673-14.878 14.877-14.878h9.793a7.577 7.577 0 0 0 7.579-7.579v-45.47a7.577 7.577 0 0 0-7.579-7.579h-9.793c-8.204 0-14.878-6.674-14.878-14.878v-2.756l11.117-10.183a7.58 7.58 0 0 0 .637-10.52l-29.585-34.529a7.575 7.575 0 0 0-5.173-2.625 7.514 7.514 0 0 0-5.513 1.801l-7.437 6.373c-6.23 5.337-15.642 4.611-20.979-1.618a14.777 14.777 0 0 1-3.536-10.825 14.775 14.775 0 0 1 5.154-10.154l7.437-6.373a7.577 7.577 0 0 0 .824-10.686L403.11 34.239a7.58 7.58 0 0 0-10.686-.824l-7.438 6.372a14.768 14.768 0 0 1-10.824 3.536 14.775 14.775 0 0 1-10.154-5.154l-9.922-11.581a7.575 7.575 0 0 0-5.173-2.625 7.562 7.562 0 0 0-5.513 1.801L212.373 138.032h-21.635a7.577 7.577 0 0 0-7.579 7.579 7.577 7.577 0 0 0 7.579 7.579h273.855v7.672c0 16.562 13.474 30.036 30.036 30.036h2.214v30.312h-2.214c-16.562 0-30.036 13.474-30.036 30.036s13.474 30.036 30.036 30.036h2.214v30.312h-2.214c-16.562 0-30.036 13.473-30.036 30.035v17.182h-52.404c-4.187 0-7.579 3.392-7.579 7.579s3.392 7.579 7.579 7.579h59.983a7.577 7.577 0 0 0 7.579-7.579v-24.761c0-8.203 6.674-14.877 14.878-14.877h9.793a7.577 7.577 0 0 0 7.579-7.579v-45.47a7.577 7.577 0 0 0-7.579-7.579zM235.67 138.032l111.836-95.824 4.991 5.826c5.219 6.093 12.5 9.788 20.499 10.404 7.998.615 15.759-1.918 21.852-7.138l1.683-1.441 19.723 23.017-1.682 1.442c-12.576 10.775-14.042 29.774-3.265 42.351 10.777 12.576 29.776 14.041 42.351 3.265l1.682-1.442 16.743 19.54H235.67zM345.666 358.81H47.409v-7.671c0-16.562-13.474-30.036-30.036-30.036h-2.215v-30.312h2.215c16.562 0 30.036-13.474 30.036-30.036s-13.474-30.036-30.036-30.036h-2.215v-30.312h2.215c16.562 0 30.036-13.474 30.036-30.036v-17.182h86.493c4.187 0 7.579-3.392 7.579-7.579s-3.392-7.579-7.579-7.579H39.83a7.577 7.577 0 0 0-7.579 7.579v24.761c0 8.203-6.674 14.878-14.878 14.878H7.579A7.577 7.577 0 0 0 0 192.828v45.47a7.577 7.577 0 0 0 7.579 7.579h9.794c8.203 0 14.878 6.674 14.878 14.878s-6.674 14.878-14.878 14.878H7.579A7.577 7.577 0 0 0 0 283.212v45.47a7.577 7.577 0 0 0 7.579 7.579h9.794c8.203 0 14.878 6.674 14.878 14.878v4.098l-10.708 8.492a7.58 7.58 0 0 0-1.046 10.869l29.584 34.529a7.575 7.575 0 0 0 5.173 2.625 7.52 7.52 0 0 0 5.513-1.801l7.438-6.373c3.018-2.587 6.862-3.851 10.824-3.536a14.775 14.775 0 0 1 10.154 5.154c5.338 6.23 4.612 15.641-1.618 20.979l-7.437 6.372a7.577 7.577 0 0 0-.824 10.686l29.584 34.529a7.576 7.576 0 0 0 10.686.824l7.438-6.372a14.779 14.779 0 0 1 10.824-3.536 14.775 14.775 0 0 1 10.154 5.154l9.922 11.58a7.565 7.565 0 0 0 5.759 2.648 7.544 7.544 0 0 0 4.927-1.824l130.796-112.069c.073-.063.136-.131.207-.196h46.061c4.187 0 7.579-3.392 7.579-7.579s-3.388-7.582-7.575-7.582zM164.495 469.792l-4.991-5.825c-5.219-6.093-12.499-9.788-20.499-10.404-7.999-.621-15.759 1.918-21.852 7.138l-1.683 1.441-19.723-23.018 1.682-1.441c6.092-5.22 9.788-12.5 10.404-20.5.616-7.999-1.918-15.76-7.138-21.852-5.219-6.093-12.499-9.788-20.499-10.404-7.997-.607-15.759 1.919-21.852 7.138l-1.682 1.442-16.744-19.54H276.33l-111.835 95.825z" fill="#FFF"/><path d="M427.899 173.562H212.007c-4.187 0-7.579 3.392-7.579 7.579s3.392 7.579 7.579 7.579H420.32v134.56H91.681V188.72h62.402c4.187 0 7.579-3.392 7.579-7.579s-3.392-7.579-7.579-7.579H84.102a7.578 7.578 0 0 0-7.579 7.579v149.718a7.577 7.577 0 0 0 7.579 7.579H427.9a7.577 7.577 0 0 0 7.579-7.579V181.141a7.579 7.579 0 0 0-7.58-7.579z" fill="#FFF"/><path d="M156.673 222.827h-41.854c-2.771 0-4.057 2.969-4.057 5.739 0 3.166 1.484 5.838 4.057 5.838h14.546V291.1c0 2.672 3.167 4.057 6.431 4.057 3.167 0 6.432-1.385 6.432-4.057v-56.696h14.446c2.573 0 4.057-2.771 4.057-5.838-.001-2.77-1.287-5.739-4.058-5.739zm17.513 0c-3.265 0-6.431 1.187-6.431 3.957V291.1c0 2.672 3.166 4.057 6.431 4.057 3.167 0 6.431-1.385 6.431-4.057v-64.316c0-2.77-3.264-3.957-6.431-3.957zm57.489 46.999c-3.364 0-6.135.99-6.333 4.057-.297 4.156-1.088 10.587-10.092 10.587-6.827 0-10.587-3.661-10.587-11.379v-27.606c0-7.718 3.759-11.38 10.389-11.38 9.399 0 10.092 6.729 10.291 9.796.098 2.969 2.771 4.057 6.431 4.057 4.353 0 6.432-1.187 6.432-6.333 0-11.479-9.797-18.8-23.551-18.8-12.467 0-22.856 6.134-22.856 22.659v27.606c0 16.524 10.291 22.659 22.758 22.659 13.852 0 23.649-7.619 23.649-19.592 0-5.046-2.079-6.331-6.531-6.331zm63.52 17.119l-21.571-32.85 17.711-22.165c.692-.89.791-1.781.791-2.473 0-3.266-4.156-6.63-7.421-6.63-1.384 0-2.572.494-3.561 1.88l-21.373 29.09v-27.013c0-2.77-3.264-3.957-6.431-3.957-3.265 0-6.431 1.187-6.431 3.957h.001V291.1c0 2.672 3.166 4.057 6.431 4.057 3.167 0 6.431-1.385 6.431-4.057v-19.393l5.344-6.728 18.602 28.2c1.088 1.78 2.77 2.473 4.452 2.473 3.76 0 7.717-3.264 7.717-6.431 0-.791-.198-1.583-.692-2.276zm47.195-3.067h-28.003v-19.889h15.041c2.771 0 4.057-2.672 4.057-4.948 0-2.672-1.484-5.146-4.057-5.146h-15.041v-19.789h28.003c2.573 0 4.057-2.672 4.057-5.739 0-2.671-1.287-5.541-4.057-5.541h-35.225c-2.87 0-5.64 1.385-5.64 4.057V291.1c0 2.672 2.77 4.057 5.64 4.057h35.225c2.771 0 4.057-2.869 4.057-5.541 0-3.066-1.484-5.738-4.057-5.738zm52.737-61.051h-41.854c-2.771 0-4.057 2.969-4.057 5.739 0 3.166 1.484 5.838 4.057 5.838h14.546V291.1c0 2.672 3.167 4.057 6.431 4.057 3.167 0 6.432-1.385 6.432-4.057v-56.696h14.446c2.573 0 4.057-2.771 4.057-5.838-.001-2.77-1.287-5.739-4.058-5.739z" fill="#FFF"/></svg>